<svg width="271" height="75" viewBox="0 0 271 75" fill="none" xmlns="http://www.w3.org/2000/svg">
<path d="M99.6355 32.8147H96.6401C93.8666 32.8147 92.4798 34.0905 92.4798 36.6422H91.8142V34.146C91.8142 32.371 92.7572 31.4834 94.6432 31.4834H110.119V32.8147H102.631V53.4497H99.6355V32.8147ZM151.241 39.1383H149.577C148.534 39.1383 147.691 39.4379 147.047 40.037C146.404 40.6139 146.082 41.4237 146.082 42.4666H145.417V40.4696C145.417 38.6946 146.249 37.8071 147.913 37.8071H159.728V39.1383H154.236V53.4497H151.241V39.1383Z" fill="white"/>
<path d="M116.643 53.7825C115.933 53.7825 115.212 53.6383 114.48 53.3499C113.747 53.0392 113.115 52.54 112.583 51.8522C112.072 51.1643 111.817 50.2546 111.817 49.123C111.817 47.4367 112.594 46.2386 114.147 45.5285C115.722 44.8185 117.775 44.4635 120.304 44.4635H121.302C121.302 42.2891 121.003 40.8025 120.404 40.0037C119.805 39.2049 118.939 38.8055 117.808 38.8055C116.809 38.8055 116.011 39.0163 115.412 39.4379C114.812 39.8595 114.391 40.5917 114.147 41.6345H112.649C112.649 40.8801 112.693 40.2921 112.782 39.8706C112.871 39.4268 113.104 39.0163 113.481 38.6391C113.881 38.2397 114.535 37.9513 115.445 37.7738C116.377 37.5741 117.386 37.4742 118.473 37.4742C120.271 37.4742 121.691 37.9624 122.734 38.9387C123.776 39.8927 124.298 41.7344 124.298 44.4635V53.4497H122.634L121.469 51.952H121.302C120.903 52.4623 120.315 52.895 119.539 53.25C118.762 53.605 117.797 53.7825 116.643 53.7825ZM118.141 52.2848C118.873 52.2848 119.483 52.1073 119.971 51.7523C120.459 51.3973 120.903 50.9092 121.302 50.2879V45.7948H120.304C118.662 45.7948 117.364 46.1054 116.41 46.7267C115.456 47.3258 114.979 48.1245 114.979 49.123C114.979 50.1437 115.278 50.9314 115.877 51.4861C116.499 52.0186 117.253 52.2848 118.141 52.2848Z" fill="#FF51EE"/>
<path d="M129.438 41.8009C129.438 40.6693 129.283 39.8373 128.972 39.3048C128.662 38.7501 128.04 38.4727 127.108 38.4727H126.443V37.8071H129.438C130.281 37.8071 130.914 37.9291 131.335 38.1732C131.779 38.395 132.09 38.7722 132.267 39.3048H132.434C132.833 38.7944 133.399 38.3618 134.131 38.0067C134.863 37.6517 135.795 37.4742 136.927 37.4742C138.835 37.4742 140.31 38.2508 141.353 39.804C142.396 41.335 142.917 43.2764 142.917 45.6284C142.917 48.0025 142.374 49.9551 141.287 51.4861C140.222 53.017 138.657 53.7825 136.594 53.7825C135.751 53.7825 135.007 53.6938 134.364 53.5163C133.72 53.3388 133.077 53.0947 132.434 52.7841V59.7733H129.438V41.8009ZM135.595 52.4512C137.015 52.4512 138.058 51.83 138.724 50.5874C139.412 49.3449 139.756 47.6919 139.756 45.6284C139.756 43.5871 139.434 41.9451 138.79 40.7026C138.147 39.4379 137.193 38.8055 135.928 38.8055C134.442 38.8055 133.277 39.4712 132.434 40.8025V51.4528C133.099 51.7634 133.676 52.0075 134.164 52.185C134.652 52.3625 135.129 52.4512 135.595 52.4512Z" fill="#FF6E06"/>
<path d="M163.077 41.8009C163.077 40.6693 162.922 39.8373 162.611 39.3048C162.301 38.7501 161.679 38.4727 160.747 38.4727H160.248V37.8071H163.077C163.898 37.8071 164.508 37.918 164.908 38.1399C165.329 38.3396 165.629 38.7168 165.806 39.2715C165.984 39.8262 166.073 40.6693 166.073 41.8009V50.4543L173.062 37.8071H176.057V53.4497H173.062V40.8025L166.073 53.4497H163.077V41.8009Z" fill="#4BE525"/>
<path d="M181.178 41.8009C181.178 40.6693 181.022 39.8373 180.712 39.3048C180.401 38.7501 179.78 38.4727 178.848 38.4727H178.515V37.8071H193.825V53.4497H190.83V39.1383H184.173V53.4497H181.178V41.8009Z" fill="#FF2121"/>
<path d="M91.2059 44.943C91.4463 44.943 91.6312 45.0539 91.7606 45.2758C91.9086 45.4977 91.9825 45.8028 91.9825 46.1911C91.9825 46.9307 91.8069 47.5039 91.4556 47.9106C90.605 48.8906 89.7267 49.6949 88.8207 50.3236C87.9332 50.9523 86.9162 51.2666 85.7698 51.2666C84.8084 51.2666 84.1335 50.9708 83.7452 50.3791C83.3569 49.7874 83.1627 48.8999 83.1627 47.7165C83.1627 47.2173 83.209 46.6163 83.3014 45.9137C81.6743 45.9137 80.5464 45.8952 79.9177 45.8582C79.8807 46.376 79.8622 46.7365 79.8622 46.9399V47.5224C79.8438 48.6687 79.816 49.4731 79.779 49.9353C79.7421 50.3976 79.6311 50.7396 79.4462 50.9615C79.2613 51.1649 78.9562 51.2666 78.531 51.2666C77.8283 51.2666 77.3291 50.8968 77.0333 50.1572C76.7559 49.4176 76.6172 48.2342 76.6172 46.6071C76.6172 44.2034 76.9593 41.9198 77.6434 39.7565C77.8098 39.2203 78.0779 38.832 78.4478 38.5916C78.8176 38.3328 79.3538 38.2033 80.0564 38.2033C80.4262 38.2033 80.6851 38.2496 80.833 38.342C80.9809 38.4345 81.0549 38.6101 81.0549 38.869C81.0549 39.1648 80.9162 39.8305 80.6388 40.8659C80.4909 41.4761 80.3522 42.2157 80.2228 43.0847H83.7729C83.9578 42.2157 84.2259 41.1063 84.5772 39.7565C84.7252 39.2018 84.947 38.8043 85.2429 38.5639C85.5572 38.3235 86.0195 38.2033 86.6296 38.2033C87.0549 38.2033 87.3507 38.2588 87.5172 38.3697C87.6836 38.4622 87.7668 38.6471 87.7668 38.9244C87.7668 39.3867 87.5357 40.6533 87.0734 42.7242C86.5557 45.0909 86.2968 46.5516 86.2968 47.1063C86.2968 47.4576 86.3708 47.735 86.5187 47.9384C86.6666 48.1233 86.8608 48.2157 87.1011 48.2157C87.4709 48.2157 87.9055 47.9939 88.4047 47.5501C88.9224 47.0878 89.6065 46.3482 90.4571 45.3313C90.679 45.0724 90.9286 44.943 91.2059 44.943Z" fill="#FF6E06"/>
<path d="M69.1981 42.6964C69.2536 42.6779 69.346 42.6687 69.4755 42.6687C69.7528 42.6687 69.9655 42.7611 70.1134 42.946C70.2613 43.1309 70.3353 43.3806 70.3353 43.6949C70.3353 44.2681 70.2243 44.7211 70.0024 45.0539C69.7806 45.3683 69.4477 45.5994 69.004 45.7473C68.1534 46.0247 67.2474 46.1633 66.2859 46.1633C65.4169 46.1633 64.6588 46.0524 64.0116 45.8305C63.4384 46.829 62.8745 47.7257 62.3198 48.5208L61.987 48.9923C61.5802 49.5655 61.2104 50.0555 60.8776 50.4623C60.5447 50.8691 60.1749 51.2481 59.7682 51.5994C59.99 53.7628 60.1472 56.148 60.2397 58.7551C60.2581 59.3653 60.0917 59.7906 59.7404 60.0309C59.3891 60.2898 58.9453 60.4192 58.4091 60.4192C57.9099 60.4192 57.5216 60.3175 57.2443 60.1141C56.9669 59.9107 56.819 59.5594 56.8005 59.0602C56.6526 56.5455 56.3937 53.1711 56.0239 48.9368L55.9407 47.9661C55.8113 46.5239 55.5432 44.2773 55.1364 41.2265L54.97 40.0893C54.9515 39.9784 54.9422 39.8212 54.9422 39.6178C54.9422 39.0816 55.0902 38.7118 55.386 38.5084C55.6818 38.2865 56.1256 38.1756 56.7173 38.1756C57.198 38.1756 57.5586 38.305 57.799 38.5639C58.0578 38.8227 58.2335 39.3127 58.3259 40.0339C58.5663 41.6425 58.7512 43.0385 58.8806 44.2219C59.0101 45.3867 59.1302 46.8382 59.2412 48.5763C59.8699 47.5778 60.7204 46.0524 61.7928 44C61.4785 43.4268 61.3213 42.7611 61.3213 42.003C61.3213 41.3744 61.46 40.7642 61.7374 40.1725C62.0147 39.5808 62.3938 39.1001 62.8745 38.7303C63.3552 38.3605 63.9007 38.1756 64.5109 38.1756C65.0471 38.1756 65.4816 38.3697 65.8144 38.758C66.1472 39.1278 66.3137 39.6733 66.3137 40.3944C66.3137 41.2265 66.0918 42.1787 65.648 43.2511C66.3506 43.2142 67.2844 43.0755 68.4493 42.8351L69.1981 42.6964Z" fill="#FF6E06"/>
<path d="M28.189 40.4841C28.8076 27.9191 29.3385 26.8534 30.1468 26.273C30.955 25.6926 32.1243 26.7063 32.1404 40.4878C32.1565 54.2693 30.6783 56.8782 30.1832 56.0041C29.6881 55.1301 27.5704 53.0491 28.189 40.4841Z" fill="#FF6E06" stroke="#FF6E06" stroke-width="0.69338"/>
<path d="M42.1358 36.8143C37.4172 39.8852 42.1358 36.8143 32.9649 41.8009C36.8098 32.5599 33.75 39.2359 36.8099 32.56C39.8697 25.884 43.5612 25.6411 46.466 27.961C49.3709 30.281 46.8545 33.7434 42.1358 36.8143Z" fill="#FF6E06"/>
<path d="M42.1338 46.613C37.4152 43.5421 42.1339 46.613 32.963 41.6264C36.8078 50.8673 33.748 44.1913 36.8079 50.8673C39.8678 57.5432 43.5592 57.7862 46.4641 55.4662C49.369 53.1463 46.8525 49.6839 42.1338 46.613Z" fill="#FF6E06"/>
<line x1="61.0195" y1="67.7305" x2="216.499" y2="67.7305" stroke="#FFE600" stroke-width="0.69338"/>
<rect x="32.5996" width="10.9235" height="19.6668" rx="2.08014" fill="#FFE500"/>
<rect width="9.62096" height="19.8134" rx="2.08014" transform="matrix(0.778821 -0.627246 0.701223 0.712942 9.19531 12.8428)" fill="#FFE500"/>
<rect width="8.38488" height="19.934" rx="2.08014" transform="matrix(0.29045 -0.95689 0.970473 0.241208 0 30.7153)" fill="#FFE500"/>
<rect width="7.56448" height="18.3894" rx="2.08014" transform="matrix(0.0220577 -0.999757 0.999837 0.0180631 0 45.3833)" fill="#FFE500"/>
<rect width="6.1755" height="16.432" rx="2.08014" transform="matrix(-0.468795 -0.883307 0.917138 -0.398569 6.23828 59.6582)" fill="#FFE500"/>
<rect width="4.82148" height="14.2322" rx="2.08014" transform="matrix(-0.793075 -0.609125 0.684128 -0.729362 17.5742 71.2607)" fill="#FFE500"/>
<rect width="3.34313" height="12.1049" rx="1.67157" transform="matrix(-0.999299 -0.0374356 0.0457022 -0.998955 33.4336 75)" fill="#FFE500"/>
<rect width="3.32481" height="10.6622" rx="1.6624" transform="matrix(-0.973971 0.226673 -0.273393 -0.961902 46.2773 73.0381)" fill="#FFE500"/>
<rect width="3.21967" height="10.2611" rx="1.60984" transform="matrix(-0.803248 0.595644 -0.671257 -0.741225 56.2852 67.3633)" fill="#FFE500"/>
</svg>
